<svg width="40" height="40" xmlns="http://www.w3.org/2000/svg" href="https://www.linkedin.com/shareArticle?mini=true&amp;url=%href%"><g fill="none"><rect stroke="#FFF" x=".5" y=".5" width="39" height="39" rx="19.5"/><g fill="#FFF"><path d="M26.24 25h-2.455v-4.448c0-.67-.572-1.258-1.227-1.258-.654 0-1.227.587-1.227 1.258V25h-2.454v-7.552h2.455v1.007c.41-.672 1.31-1.175 2.046-1.175 1.555 0 2.864 1.342 2.864 2.937V25zM16.013 16.02c-.818 0-1.473-.67-1.473-1.51S15.195 13 16.013 13c.818 0 1.472.67 1.472 1.51s-.654 1.51-1.472 1.51zM14.785 25v-7.552h2.455V25"/></g></g></svg>