<svg width="40" height="40" xmlns="http://www.w3.org/2000/svg" href="https://twitter.com/share?text=%title%&amp;url=%href%" data-width="550" data-height="235"><g fill="none"><rect stroke="#FFF" x=".5" y=".5" width="39" height="39" rx="19.5"/><path d="M25.55 18.812c0 .85-.166 1.696-.5 2.537-.336.84-.81 1.61-1.42 2.306-.61.698-1.407 1.262-2.386 1.695-.98.434-2.046.65-3.2.65-1.458 0-2.805-.376-4.044-1.13.217.016.426.024.627.024 1.24 0 2.335-.36 3.29-1.082-.57 0-1.076-.164-1.52-.492-.443-.33-.748-.75-.916-1.263.17.033.345.05.53.05.283 0 .535-.025.752-.073-.586-.128-1.06-.42-1.42-.878-.358-.457-.538-.99-.538-1.598v-.048c0 .096.112.172.338.228.226.056.465.085.716.085-.385-.24-.703-.546-.955-.914-.25-.37-.376-.762-.376-1.18 0-.448.117-.873.352-1.274.668.786 1.476 1.41 2.422 1.875.945.467 1.954.723 3.026.77-.05-.19-.076-.384-.076-.576 0-.69.26-1.282.78-1.778.517-.498 1.138-.746 1.857-.746.77 0 1.414.265 1.933.793.586-.112 1.146-.312 1.682-.6-.2.593-.594 1.057-1.18 1.394.536-.065 1.046-.2 1.532-.41-.368.513-.812.954-1.332 1.322.018.112.026.216.026.312z" fill="#FFF"/></g></svg>